<?xml version="1.0" encoding="UTF-8" standalone="no"?>
<!DOCTYPE svg PUBLIC "-//W3C//DTD SVG 1.1//EN"
 "http://www.w3.org/Graphics/SVG/1.1/DTD/svg11.dtd">
<!-- Generated by graphviz version 2.42.3 (0)
 -->
<!-- Title: G Pages: 1 -->
<svg width="1718pt" height="388pt"
 viewBox="0.00 0.00 1718.00 387.98" xmlns="http://www.w3.org/2000/svg" xmlns:xlink="http://www.w3.org/1999/xlink">
<g id="graph0" class="graph" transform="scale(1 1) rotate(0) translate(4 383.98)">
<title>G</title>
<polygon fill="white" stroke="transparent" points="-4,4 -4,-383.98 1714,-383.98 1714,4 -4,4"/>
<!-- unity_solid -->
<g id="node1" class="node">
<title>unity_solid</title>
<polygon fill="#ddeedd" stroke="black" points="258.5,-351.98 164.5,-351.98 164.5,-315.98 258.5,-315.98 258.5,-351.98"/>
<text text-anchor="middle" x="211.5" y="-330.28" font-family="Times,serif" font-size="14.00">unity_solid</text>
</g>
<!-- unity_gravity -->
<g id="node2" class="node">
<title>unity_gravity</title>
<polygon fill="#ddeedd" stroke="black" points="267,-160.98 156,-160.98 156,-124.98 267,-124.98 267,-160.98"/>
<text text-anchor="middle" x="211.5" y="-139.28" font-family="Times,serif" font-size="14.00">unity_gravity</text>
</g>
<!-- steamvr_holdable -->
<g id="node3" class="node">
<title>steamvr_holdable</title>
<polygon fill="#dddddd" stroke="black" points="714.5,-244.98 571.5,-244.98 571.5,-208.98 714.5,-208.98 714.5,-244.98"/>
<text text-anchor="middle" x="643" y="-223.28" font-family="Times,serif" font-size="14.00">steamvr_holdable</text>
</g>
<!-- steamvr_triggerable -->
<g id="node4" class="node">
<title>steamvr_triggerable</title>
<polygon fill="#dddddd" stroke="black" points="724,-298.98 562,-298.98 562,-262.98 724,-262.98 724,-298.98"/>
<text text-anchor="middle" x="643" y="-277.28" font-family="Times,serif" font-size="14.00">steamvr_triggerable</text>
</g>
<!-- deathplane -->
<g id="node5" class="node">
<title>deathplane</title>
<polygon fill="#ffccff" stroke="black" points="259.5,-92.98 163.5,-92.98 163.5,-56.98 259.5,-56.98 259.5,-92.98"/>
<text text-anchor="middle" x="211.5" y="-71.28" font-family="Times,serif" font-size="14.00">deathplane</text>
</g>
<!-- fire -->
<g id="node6" class="node">
<title>fire</title>
<polygon fill="#ffdddd" stroke="black" points="54,-38.98 0,-38.98 0,-2.98 54,-2.98 54,-38.98"/>
<text text-anchor="middle" x="27" y="-17.28" font-family="Times,serif" font-size="14.00">fire</text>
</g>
<!-- fire_core -->
<g id="node7" class="node">
<title>fire_core</title>
<polygon fill="#ffdddd" stroke="black" points="251,-38.98 172,-38.98 172,-2.98 251,-2.98 251,-38.98"/>
<text text-anchor="middle" x="211.5" y="-17.28" font-family="Times,serif" font-size="14.00">fire_core</text>
</g>
<!-- fire&#45;&gt;fire_core -->
<g id="edge14" class="edge">
<title>fire&#45;&gt;fire_core</title>
<path fill="none" stroke="black" d="M54.01,-8.41C59.8,-6.16 66.01,-4.16 72,-2.98 101.64,2.85 135.23,-1.26 161.91,-7.01"/>
<polygon fill="black" stroke="black" points="161.24,-10.45 171.77,-9.28 162.81,-3.63 161.24,-10.45"/>
<text text-anchor="middle" x="105" y="-6.78" font-family="Times,serif" font-size="14.00">produces</text>
</g>
<!-- fire_core&#45;&gt;fire -->
<g id="edge15" class="edge">
<title>fire_core&#45;&gt;fire</title>
<path fill="none" stroke="black" d="M171.8,-20.98C140.07,-20.98 95.48,-20.98 64.4,-20.98"/>
<polygon fill="black" stroke="black" points="64.01,-17.48 54.01,-20.98 64.01,-24.48 64.01,-17.48"/>
<text text-anchor="middle" x="105" y="-24.78" font-family="Times,serif" font-size="14.00">produces</text>
</g>
<!-- foam -->
<g id="node8" class="node">
<title>foam</title>
<polygon fill="#ddddff" stroke="black" points="460,-97.98 406,-97.98 406,-61.98 460,-61.98 460,-97.98"/>
<text text-anchor="middle" x="433" y="-76.28" font-family="Times,serif" font-size="14.00">foam</text>
</g>
<!-- foam&#45;&gt;unity_gravity -->
<g id="edge5" class="edge">
<title>foam&#45;&gt;unity_gravity</title>
<path fill="none" stroke="black" d="M405.97,-86.61C400.07,-88.08 393.82,-89.6 388,-90.98 342.36,-101.78 329.81,-100.12 285,-113.98 278.06,-116.13 270.84,-118.65 263.77,-121.3"/>
<polygon fill="black" stroke="black" points="262.34,-118.1 254.26,-124.95 264.85,-124.63 262.34,-118.1"/>
<text text-anchor="middle" x="336.5" y="-117.78" font-family="Times,serif" font-size="14.00">inherits</text>
</g>
<!-- foam&#45;&gt;deathplane -->
<g id="edge18" class="edge">
<title>foam&#45;&gt;deathplane</title>
<path fill="none" stroke="black" d="M405.97,-77.25C400.07,-76.73 393.82,-76.26 388,-75.98 348.7,-74.09 304.39,-73.85 270.12,-74.08"/>
<polygon fill="black" stroke="black" points="269.8,-70.58 259.83,-74.16 269.86,-77.58 269.8,-70.58"/>
<text text-anchor="middle" x="336.5" y="-79.78" font-family="Times,serif" font-size="14.00">interacts_with</text>
</g>
<!-- foam&#45;&gt;fire_core -->
<g id="edge17" class="edge">
<title>foam&#45;&gt;fire_core</title>
<path fill="none" stroke="black" d="M405.61,-63.92C399.95,-60.95 393.89,-58.12 388,-55.98 346.53,-40.94 297.08,-31.81 261.25,-26.67"/>
<polygon fill="black" stroke="black" points="261.45,-23.17 251.06,-25.26 260.49,-30.1 261.45,-23.17"/>
<text text-anchor="middle" x="336.5" y="-59.78" font-family="Times,serif" font-size="14.00">interacts_with</text>
</g>
<!-- foam_factory -->
<g id="node9" class="node">
<title>foam_factory</title>
<polygon fill="#ddddff" stroke="black" points="697.5,-111.98 588.5,-111.98 588.5,-75.98 697.5,-75.98 697.5,-111.98"/>
<text text-anchor="middle" x="643" y="-90.28" font-family="Times,serif" font-size="14.00">foam_factory</text>
</g>
<!-- foam_factory&#45;&gt;foam -->
<g id="edge16" class="edge">
<title>foam_factory&#45;&gt;foam</title>
<path fill="none" stroke="black" d="M588.43,-90.38C551.29,-87.88 502.82,-84.61 470.17,-82.42"/>
<polygon fill="black" stroke="black" points="470.37,-78.92 460.16,-81.74 469.9,-85.91 470.37,-78.92"/>
<text text-anchor="middle" x="511" y="-90.78" font-family="Times,serif" font-size="14.00">produces</text>
</g>
<!-- extinguisher -->
<g id="node10" class="node">
<title>extinguisher</title>
<polygon fill="#ddffdd" stroke="black" points="1444,-309.98 1337,-309.98 1337,-273.98 1444,-273.98 1444,-309.98"/>
<text text-anchor="middle" x="1390.5" y="-288.28" font-family="Times,serif" font-size="14.00">extinguisher</text>
</g>
<!-- extinguisher&#45;&gt;unity_solid -->
<g id="edge8" class="edge">
<title>extinguisher&#45;&gt;unity_solid</title>
<path fill="none" stroke="black" d="M1369.12,-310.09C1355.79,-320.88 1337.49,-333.82 1319,-340.98 1243.12,-370.36 1218.87,-364.98 1137.5,-364.98 1137.5,-364.98 1137.5,-364.98 432,-364.98 376.12,-364.98 313.02,-355.01 268.87,-346.38"/>
<polygon fill="black" stroke="black" points="269.4,-342.92 258.9,-344.39 268.03,-349.78 269.4,-342.92"/>
<text text-anchor="middle" x="770" y="-368.78" font-family="Times,serif" font-size="14.00">inherits</text>
</g>
<!-- extinguisher&#45;&gt;unity_gravity -->
<g id="edge6" class="edge">
<title>extinguisher&#45;&gt;unity_gravity</title>
<path fill="none" stroke="black" d="M1336.7,-303.64C1285.92,-313.82 1206.85,-326.98 1137.5,-326.98 1137.5,-326.98 1137.5,-326.98 769,-326.98 676.61,-326.98 651.13,-332.3 562,-307.98 441.99,-275.25 312.52,-203.4 250.22,-166.25"/>
<polygon fill="black" stroke="black" points="251.9,-163.17 241.52,-161.03 248.29,-169.18 251.9,-163.17"/>
<text text-anchor="middle" x="770" y="-330.78" font-family="Times,serif" font-size="14.00">inherits</text>
</g>
<!-- extinguisher_handle -->
<g id="node11" class="node">
<title>extinguisher_handle</title>
<polygon fill="#ddffdd" stroke="black" points="1217,-274.98 1056,-274.98 1056,-238.98 1217,-238.98 1217,-274.98"/>
<text text-anchor="middle" x="1136.5" y="-253.28" font-family="Times,serif" font-size="14.00">extinguisher_handle</text>
</g>
<!-- extinguisher&#45;&gt;extinguisher_handle -->
<g id="edge10" class="edge">
<title>extinguisher&#45;&gt;extinguisher_handle</title>
<path fill="none" stroke="black" d="M1336.98,-284.69C1305.34,-280.29 1264.19,-274.58 1227.49,-269.48"/>
<polygon fill="black" stroke="black" points="1227.65,-265.97 1217.27,-268.06 1226.69,-272.9 1227.65,-265.97"/>
<text text-anchor="middle" x="1277" y="-284.78" font-family="Times,serif" font-size="14.00">attached_to</text>
</g>
<!-- extinguisher_handle&#45;&gt;steamvr_holdable -->
<g id="edge3" class="edge">
<title>extinguisher_handle&#45;&gt;steamvr_holdable</title>
<path fill="none" stroke="black" d="M1055.61,-251.86C1026.18,-249.98 992.58,-247.87 962,-245.98 881.31,-241.01 789.08,-235.52 724.8,-231.73"/>
<polygon fill="black" stroke="black" points="724.92,-228.23 714.73,-231.13 724.51,-235.22 724.92,-228.23"/>
<text text-anchor="middle" x="889" y="-249.78" font-family="Times,serif" font-size="14.00">inherits</text>
</g>
<!-- extinguisher_handle&#45;&gt;steamvr_triggerable -->
<g id="edge4" class="edge">
<title>extinguisher_handle&#45;&gt;steamvr_triggerable</title>
<path fill="none" stroke="black" d="M1055.99,-260.87C968,-265.16 826.48,-272.07 734.36,-276.57"/>
<polygon fill="black" stroke="black" points="734.03,-273.08 724.22,-277.07 734.37,-280.07 734.03,-273.08"/>
<text text-anchor="middle" x="889" y="-275.78" font-family="Times,serif" font-size="14.00">inherits</text>
</g>
<!-- extinguisher_nose -->
<g id="node12" class="node">
<title>extinguisher_nose</title>
<polygon fill="#ddffdd" stroke="black" points="962,-187.98 816,-187.98 816,-151.98 962,-151.98 962,-187.98"/>
<text text-anchor="middle" x="889" y="-166.28" font-family="Times,serif" font-size="14.00">extinguisher_nose</text>
</g>
<!-- extinguisher_handle&#45;&gt;extinguisher_nose -->
<g id="edge13" class="edge">
<title>extinguisher_handle&#45;&gt;extinguisher_nose</title>
<path fill="none" stroke="black" d="M1107.05,-238.83C1088.11,-227.43 1062.33,-213.19 1038,-203.98 1017.15,-196.09 993.93,-189.7 972.18,-184.69"/>
<polygon fill="black" stroke="black" points="972.83,-181.25 962.3,-182.48 971.3,-188.08 972.83,-181.25"/>
<text text-anchor="middle" x="1009" y="-207.78" font-family="Times,serif" font-size="14.00">triggers</text>
</g>
<!-- extinguisher_nose&#45;&gt;unity_solid -->
<g id="edge9" class="edge">
<title>extinguisher_nose&#45;&gt;unity_solid</title>
<path fill="none" stroke="black" d="M815.87,-170.97C749.21,-173.21 647.8,-179.99 562,-199.98 449.35,-226.23 324.39,-280.76 258.7,-311.55"/>
<polygon fill="black" stroke="black" points="256.99,-308.49 249.44,-315.92 259.98,-314.82 256.99,-308.49"/>
<text text-anchor="middle" x="511" y="-226.78" font-family="Times,serif" font-size="14.00">inherits</text>
</g>
<!-- extinguisher_nose&#45;&gt;unity_gravity -->
<g id="edge7" class="edge">
<title>extinguisher_nose&#45;&gt;unity_gravity</title>
<path fill="none" stroke="black" d="M815.88,-158.79C809.84,-158.09 803.82,-157.47 798,-156.98 609.29,-141.15 385.27,-140.95 277.2,-142.01"/>
<polygon fill="black" stroke="black" points="277.07,-138.51 267.1,-142.12 277.14,-145.51 277.07,-138.51"/>
<text text-anchor="middle" x="511" y="-147.78" font-family="Times,serif" font-size="14.00">inherits</text>
</g>
<!-- extinguisher_nose&#45;&gt;steamvr_holdable -->
<g id="edge2" class="edge">
<title>extinguisher_nose&#45;&gt;steamvr_holdable</title>
<path fill="none" stroke="black" d="M815.96,-186.73C792.39,-192.22 766.08,-198.35 742,-203.98 736.33,-205.31 730.48,-206.68 724.58,-208.06"/>
<polygon fill="black" stroke="black" points="723.59,-204.7 714.65,-210.39 725.19,-211.51 723.59,-204.7"/>
<text text-anchor="middle" x="770" y="-207.78" font-family="Times,serif" font-size="14.00">inherits</text>
</g>
<!-- extinguisher_nose&#45;&gt;foam_factory -->
<g id="edge1" class="edge">
<title>extinguisher_nose&#45;&gt;foam_factory</title>
<path fill="none" stroke="black" d="M864.99,-151.78C847.61,-139.04 822.61,-122.77 798,-113.98 769.39,-103.77 736.14,-98.67 707.87,-96.17"/>
<polygon fill="black" stroke="black" points="707.94,-92.66 697.7,-95.36 707.39,-99.64 707.94,-92.66"/>
<text text-anchor="middle" x="770" y="-117.78" font-family="Times,serif" font-size="14.00">inherits</text>
</g>
<!-- extinguisher_hose -->
<g id="node13" class="node">
<title>extinguisher_hose</title>
<polygon fill="#ddffdd" stroke="black" points="1710,-227.98 1564,-227.98 1564,-191.98 1710,-191.98 1710,-227.98"/>
<text text-anchor="middle" x="1637" y="-206.28" font-family="Times,serif" font-size="14.00">extinguisher_hose</text>
</g>
<!-- extinguisher_hose&#45;&gt;extinguisher -->
<g id="edge11" class="edge">
<title>extinguisher_hose&#45;&gt;extinguisher</title>
<path fill="none" stroke="black" d="M1582.04,-228.08C1544.1,-240.8 1493.25,-257.86 1453.62,-271.15"/>
<polygon fill="black" stroke="black" points="1452.43,-267.86 1444.06,-274.35 1454.66,-274.49 1452.43,-267.86"/>
<text text-anchor="middle" x="1504" y="-270.78" font-family="Times,serif" font-size="14.00">attached_to</text>
</g>
<!-- extinguisher_hose&#45;&gt;extinguisher_nose -->
<g id="edge12" class="edge">
<title>extinguisher_hose&#45;&gt;extinguisher_nose</title>
<path fill="none" stroke="black" d="M1563.79,-206.11C1424.53,-198.64 1119.62,-182.29 972.56,-174.41"/>
<polygon fill="black" stroke="black" points="972.42,-170.9 962.25,-173.86 972.05,-177.89 972.42,-170.9"/>
<text text-anchor="middle" x="1277" y="-196.78" font-family="Times,serif" font-size="14.00">attached_to</text>
</g>
</g>
</svg>
